<?xml version="1.0" standalone="no"?>
<svg viewBox="0 0 200 200" xmlns="http://www.w3.org/2000/svg">
  <path fill="#F4C463" d="M38.2,-67.7C47.7,-60.7,52.3,-46.8,60.2,-34.4C68.1,-21.9,79.2,-11,77.6,-1C75.9,9,61.4,18,52.1,28C42.8,38,38.7,48.9,30.8,58.5C23,68,11.5,76.2,-2.3,80.1C-16,84,-32.1,83.7,-42.3,75.5C-52.5,67.3,-56.9,51.3,-58.7,37.5C-60.6,23.6,-60,11.8,-56.9,1.8C-53.7,-8.2,-48.1,-16.3,-45.9,-29.7C-43.7,-43,-44.9,-61.4,-37.8,-69.8C-30.7,-78.2,-15.4,-76.6,-0.5,-75.7C14.4,-74.8,28.7,-74.7,38.2,-67.7Z" transform="translate(100 100)" />
</svg>
